<svg width="55" height="55" viewBox="0 0 55 55" fill="none" xmlns="http://www.w3.org/2000/svg">
<path fill-rule="evenodd" clip-rule="evenodd" d="M54.0024 18.4513C54.0024 14.5597 50.8435 11.4004 46.952 11.4004H7.05009C3.15923 11.4004 0 14.5597 0 18.4513V46.9519C0 50.8434 3.15932 54.0024 7.05009 54.0024H46.952C50.8435 54.0024 54.0024 50.8434 54.0024 46.9519V18.4513ZM42.6022 31.352V27.0016C42.6022 26.2562 41.9968 25.6516 41.2521 25.6516C40.5066 25.6516 39.9021 26.2562 39.9021 27.0016V31.352H35.5517C34.8062 31.352 34.2016 31.9566 34.2016 32.7021C34.2016 33.4472 34.8062 34.0521 35.5517 34.0521H39.9021V38.4017C39.9021 39.1472 40.5066 39.7518 41.2521 39.7518C41.9968 39.7518 42.6022 39.1472 42.6022 38.4017V34.0521H46.9518C47.6972 34.0521 48.3018 33.4472 48.3018 32.7021C48.3018 31.9566 47.6972 31.352 46.9518 31.352H42.6022ZM7.05038 34.0521H18.4506C19.1957 34.0521 19.8007 33.4472 19.8007 32.7021C19.8007 31.9566 19.1957 31.352 18.4506 31.352H7.05038C6.30566 31.352 5.70032 31.9566 5.70032 32.7021C5.70032 33.4472 6.30566 34.0521 7.05038 34.0521Z" fill="#4B4F68"/>
<path fill-rule="evenodd" clip-rule="evenodd" d="M19.7998 2.77514C19.7998 1.2435 18.5567 0.000488281 17.0251 0.000488281H8.47387C6.94223 0.000488281 5.69922 1.2436 5.69922 2.77514V5.62559C5.69922 7.15685 6.94233 8.39996 8.47387 8.39996H17.0251C18.5568 8.39996 19.7998 7.15685 19.7998 5.62559V2.77514Z" fill="#4B4F68"/>
<path fill-rule="evenodd" clip-rule="evenodd" d="M48.712 2.77504C48.712 1.24302 47.4688 0 45.9369 0H36.9762C35.4446 0 34.2012 1.24311 34.2012 2.77504V5.62472C34.2012 7.15674 35.4447 8.39976 36.9762 8.39976H45.9369C47.4689 8.39976 48.712 7.15665 48.712 5.62472V2.77504Z" fill="#4B4F68"/>
</svg>
