<svg width="14" height="40" viewBox="0 0 14 40" fill="none" xmlns="http://www.w3.org/2000/svg">
<path d="M13.6538 11.423C13.8715 11.2011 13.9956 10.9029 14 10.5909V5.88214C13.9988 5.56919 13.8749 5.26942 13.6556 5.04812C13.4363 4.82682 13.1392 4.70189 12.8291 4.70064H10.2897C10.4294 4.32585 10.4994 3.92814 10.496 3.52759C10.4972 2.59159 10.1295 1.69352 9.47343 1.03178C8.81767 0.370094 7.92768 -0.00120243 7 2.92558e-06C6.08012 0.0232309 5.20412 0.4021 4.55333 1.05878C3.90254 1.71547 3.52705 2.59939 3.50404 3.52759C3.50062 3.92812 3.57061 4.32582 3.71028 4.70064H1.17059C0.860448 4.70189 0.563675 4.82682 0.344364 5.04812C0.125053 5.26941 0.00124292 5.56918 5.92155e-07 5.88214V10.5909C-0.000310468 10.9023 0.12194 11.2008 0.340009 11.4208C0.558388 11.6409 0.854222 11.7642 1.16249 11.7639H3.50396L3.49557 14.1184H2.34147C2.03133 14.1197 1.73425 14.2443 1.51493 14.4656C1.29561 14.6869 1.17181 14.9867 1.17087 15.2996C1.17025 15.611 1.29281 15.9095 1.51088 16.1296C1.72895 16.3496 2.02478 16.4733 2.33337 16.4726H3.50395V18.8187H2.33305H2.33336C1.91496 18.8187 1.52863 19.044 1.31927 19.4094C1.11022 19.7751 1.11022 20.2252 1.31927 20.5909C1.52863 20.9563 1.91499 21.1816 2.33336 21.1816H3.50394V23.5277H2.33304C2.02476 23.5273 1.72893 23.6507 1.51088 23.8707C1.29282 24.0908 1.17025 24.3893 1.17056 24.7007C1.1718 25.0136 1.29561 25.3134 1.51492 25.5347C1.73423 25.756 2.03131 25.8809 2.34147 25.8819H3.49588L3.50396 28.2364H1.16249C0.854214 28.2361 0.558069 28.3594 0.340009 28.5795C0.12194 28.7995 -0.00030999 29.0983 5.92155e-07 29.4094V34.1182C0.00124499 34.4311 0.125053 34.7309 0.344364 34.9522C0.563675 35.1735 0.860758 35.2984 1.17091 35.2997L3.73513 35.2912H3.73482C3.58736 35.6675 3.50897 36.0678 3.504 36.4727C3.504 37.733 4.17033 38.8972 5.25194 39.5275C6.33356 40.1575 7.6662 40.1575 8.74782 39.5275C9.82944 38.8972 10.4954 37.733 10.4954 36.4727C10.4989 36.0721 10.4292 35.6744 10.2895 35.2996H12.8289C13.1384 35.2965 13.4346 35.1709 13.6535 34.9499C13.8722 34.7293 13.9966 34.4305 13.9998 34.1181V29.4093C14.0001 29.0983 13.8778 28.7994 13.6597 28.5794C13.4414 28.3594 13.1455 28.236 12.8373 28.2363H10.4958L10.5042 25.8818H11.6586H11.6583C12.0751 25.8834 12.4609 25.6605 12.6705 25.297C12.8802 24.9335 12.8818 24.4847 12.6749 24.1199C12.4677 23.7549 12.0832 23.5292 11.6667 23.5276H10.4958V21.1816H11.6667H11.6664C11.9759 21.1772 12.2714 21.052 12.491 20.8319C12.7069 20.6094 12.8307 20.3118 12.8373 20.0001C12.836 19.6871 12.7122 19.3874 12.4929 19.166C12.2736 18.9448 11.9765 18.8198 11.6664 18.8189H10.4955L10.4958 16.4725H11.6667H11.6664C11.9759 16.4685 12.2714 16.3432 12.491 16.1232C12.7087 15.9019 12.8301 15.6021 12.8288 15.2901C12.8276 14.9781 12.7035 14.6793 12.4841 14.4595C12.2645 14.2398 11.9674 14.1171 11.6582 14.1183H10.5038L10.4957 11.7638H12.8372C13.143 11.7626 13.436 11.6398 13.6535 11.4229L13.6538 11.423ZM7.00005 37.6539C6.69146 37.6523 6.39594 37.5277 6.17821 37.3067C5.96045 37.086 5.83851 36.7872 5.83882 36.4755C5.83944 36.1641 5.96232 35.8656 6.18039 35.6452C6.39877 35.4252 6.6946 35.3012 7.00319 35.3006C7.31209 35.3003 7.60825 35.4233 7.82695 35.643C8.04595 35.8628 8.16945 36.161 8.17101 36.4723C8.15856 36.7815 8.03133 37.075 7.8142 37.2938C7.59737 37.5129 7.30651 37.6413 7.00007 37.6539L7.00005 37.6539ZM7.82445 4.35962C7.60607 4.58123 7.30993 4.70679 7.00005 4.70899C6.69146 4.70773 6.39563 4.5828 6.17821 4.36213C5.96045 4.14115 5.83851 3.84232 5.83882 3.5306C5.83913 3.21922 5.96201 2.92071 6.18039 2.70036C6.39846 2.48 6.6946 2.35633 7.00319 2.3557C7.31209 2.35538 7.60825 2.47843 7.82727 2.69815C8.04596 2.91788 8.16977 3.21608 8.17101 3.52744C8.16884 3.84007 8.04441 4.13922 7.82447 4.35953L7.82445 4.35962Z" fill="#538BFF"/>
</svg>
