<svg width="26" height="72" viewBox="0 0 26 72" fill="none" xmlns="http://www.w3.org/2000/svg">
<path d="M25.357 20.5614C25.7614 20.1619 25.9919 19.6251 26 19.0636V10.5879C25.9977 10.0245 25.7678 9.48495 25.3605 9.08661C24.9532 8.68828 24.4014 8.4634 23.8254 8.46115H19.1095C19.3689 7.78652 19.4989 7.07066 19.4925 6.34966C19.4948 4.66487 18.8119 3.04834 17.5935 1.85721C16.3757 0.66617 14.7228 -0.00216437 13 5.26605e-06C11.2916 0.0418156 9.66479 0.723781 8.45618 1.90581C7.24757 3.08784 6.55024 4.67889 6.5075 6.34966C6.50114 7.07061 6.63113 7.78648 6.89052 8.46115H2.17396C1.59798 8.46341 1.04682 8.68828 0.639533 9.08661C0.232241 9.48494 0.00230828 10.0245 1.09972e-06 10.5879V19.0636C-0.000576583 19.6241 0.22646 20.1614 0.631445 20.5575C1.03701 20.9535 1.58641 21.1756 2.15892 21.175H6.50736L6.49177 25.4132H4.34845C3.77247 25.4154 3.22074 25.6398 2.81343 26.0381C2.40613 26.4364 2.17621 26.976 2.17448 27.5393C2.17333 28.0998 2.40094 28.6371 2.80592 29.0332C3.21091 29.4292 3.76031 29.6519 4.3334 29.6507H6.50733V33.8736H4.33281H4.33338C3.55635 33.8736 2.83889 34.2793 2.45007 34.9369C2.06184 35.5952 2.06184 36.4053 2.45007 37.0636C2.83888 37.7213 3.55641 38.127 4.33338 38.127H6.50731V42.3498H4.33279C3.76027 42.3492 3.21087 42.5713 2.80591 42.9673C2.40096 43.3634 2.17331 43.9007 2.17389 44.4612C2.1762 45.0245 2.40613 45.5641 2.81342 45.9624C3.22071 46.3608 3.77244 46.5857 4.34844 46.5873H6.49234L6.50736 50.8255H2.15892C1.5864 50.8249 1.03641 51.047 0.631445 51.4431C0.22646 51.8391 -0.000575696 52.377 1.09972e-06 52.9369V61.4127C0.00231213 61.976 0.232241 62.5156 0.639533 62.9139C1.04682 63.3122 1.59855 63.5371 2.17455 63.5394L6.93666 63.5241H6.93609C6.66224 64.2016 6.51667 64.922 6.50742 65.6508C6.50742 67.9194 7.7449 70.015 9.7536 71.1495C11.7623 72.2835 14.2372 72.2835 16.246 71.1495C18.2547 70.015 19.4915 67.9194 19.4915 65.6508C19.4979 64.9298 19.3685 64.214 19.1091 63.5393H23.8251C24.3999 63.5337 24.9499 63.3077 25.3565 62.9099C25.7627 62.5127 25.9938 61.9748 25.9995 61.4126V52.9368C26.0001 52.3769 25.7731 51.839 25.3681 51.4429C24.9625 51.0469 24.4131 50.8248 23.8406 50.8254H19.4922L19.5078 46.5872H21.6517H21.6511C22.4252 46.59 23.1416 46.1889 23.531 45.5346C23.9204 44.8803 23.9233 44.0724 23.5391 43.4159C23.1543 42.7588 22.4403 42.3525 21.6667 42.3497H19.4922V38.1269H21.6667H21.6662C22.241 38.119 22.7898 37.8935 23.1976 37.4975C23.5986 37.0969 23.8285 36.5612 23.8406 36.0001C23.8383 35.4368 23.6084 34.8972 23.2011 34.4989C22.7938 34.1006 22.2421 33.8757 21.6661 33.874H19.4916L19.4921 29.6506H21.6667H21.6661C22.2409 29.6432 22.7898 29.4178 23.1975 29.0217C23.602 28.6234 23.8273 28.0838 23.825 27.5222C23.8226 26.9606 23.5921 26.4227 23.1848 26.0272C22.777 25.6317 22.2252 25.4108 21.651 25.413H19.5071L19.4921 21.1749H23.8405C24.4084 21.1726 24.9526 20.9517 25.3565 20.5612L25.357 20.5614ZM13.0001 67.777C12.427 67.7741 11.8782 67.5498 11.4738 67.1521C11.0694 66.7549 10.8429 66.217 10.8435 65.6559C10.8447 65.0954 11.0729 64.5581 11.4779 64.1614C11.8834 63.7654 12.4328 63.5422 13.0059 63.5411C13.5796 63.5405 14.1296 63.762 14.5358 64.1575C14.9425 64.553 15.1718 65.0897 15.1747 65.6502C15.1516 66.2067 14.9153 66.735 14.5121 67.1289C14.1094 67.5233 13.5692 67.7543 13.0001 67.7769L13.0001 67.777ZM14.5311 7.84731C14.1256 8.24621 13.5756 8.47221 13.0001 8.47618C12.427 8.47392 11.8776 8.24904 11.4738 7.85184C11.0694 7.45407 10.8429 6.91618 10.8435 6.35508C10.8441 5.79459 11.0723 5.25728 11.4779 4.86064C11.8828 4.464 12.4328 4.2414 13.0059 4.24025C13.5796 4.23969 14.1296 4.46116 14.5364 4.85668C14.9425 5.25218 15.1724 5.78894 15.1747 6.34938C15.1707 6.91213 14.9396 7.45059 14.5312 7.84716L14.5311 7.84731Z" fill="#4B4F68"/>
</svg>
