<?xml version="1.0" encoding="utf-8"?><svg xmlns="http://www.w3.org/2000/svg" xmlns:xlink="http://www.w3.org/1999/xlink"><symbol viewBox="0 0 55 55" id="accumulator" xmlns="http://www.w3.org/2000/svg"><path fill-rule="evenodd" clip-rule="evenodd" d="M54.002 18.451a7.054 7.054 0 00-7.05-7.05H7.05A7.053 7.053 0 000 18.45v28.5a7.054 7.054 0 007.05 7.051h39.902a7.053 7.053 0 007.05-7.05v-28.5zm-11.4 12.901v-4.35a1.35 1.35 0 00-2.7 0v4.35h-4.35a1.35 1.35 0 000 2.7h4.35v4.35a1.35 1.35 0 002.7 0v-4.35h4.35a1.35 1.35 0 000-2.7h-4.35zm-35.552 2.7h11.4a1.35 1.35 0 000-2.7H7.05a1.35 1.35 0 000 2.7zM19.8 2.775A2.776 2.776 0 0017.025 0H8.474a2.776 2.776 0 00-2.775 2.775v2.85A2.776 2.776 0 008.474 8.4h8.551A2.776 2.776 0 0019.8 5.626v-2.85zm28.912 0A2.776 2.776 0 0045.937 0h-8.96A2.776 2.776 0 0034.2 2.775v2.85A2.776 2.776 0 0036.976 8.4h8.96a2.776 2.776 0 002.776-2.775v-2.85z"/></symbol><symbol viewBox="0 0 10 6" id="arrow-down" xmlns="http://www.w3.org/2000/svg"><path fill-rule="evenodd" clip-rule="evenodd" d="M9.4 1.718A.814.814 0 008.267.552L5 3.73 1.734.552A.814.814 0 10.599 1.718L5 6l4.4-4.282z"/></symbol><symbol viewBox="0 0 6 10" id="arrow-right" xmlns="http://www.w3.org/2000/svg"><path fill-rule="evenodd" clip-rule="evenodd" d="M1.718.6A.814.814 0 00.552 1.733L3.73 5 .552 8.266a.814.814 0 001.166 1.135L6 5 1.718.6z"/></symbol><symbol viewBox="0 0 30 19" id="burger" xmlns="http://www.w3.org/2000/svg"><rect width="30" height="3" rx="1.5"/><rect y="8" width="30" height="3" rx="1.5"/><rect y="16" width="30" height="3" rx="1.5"/></symbol><symbol viewBox="0 0 24 25" id="close" xmlns="http://www.w3.org/2000/svg"><rect x="2.455" y=".833" width="30" height="3" rx="1.5" transform="rotate(45 2.455 .833)"/><rect x="23.666" y="2.954" width="30" height="3" rx="1.5" transform="rotate(135 23.666 2.954)"/></symbol><symbol viewBox="0 0 54 54" id="filter" xmlns="http://www.w3.org/2000/svg"><path d="M.669 4.988C-.916 2.978.494 0 3.032 0h47.936c2.538 0 3.948 2.978 2.363 4.988L35.705 27.34a12.394 12.394 0 00-2.652 7.672v5.956c0 3.258-1.275 6.381-3.546 8.685l-3.394 3.443c-1.907 1.934-5.166.564-5.166-2.171V35.01c0-2.789-.936-5.494-2.653-7.672L.669 4.99z"/></symbol><symbol viewBox="0 0 14 40" id="logo" xmlns="http://www.w3.org/2000/svg"><path d="M13.654 11.423c.217-.222.342-.52.346-.832V5.882a1.192 1.192 0 00-.344-.834 1.17 1.17 0 00-.827-.347h-2.54c.14-.375.21-.773.207-1.173a3.538 3.538 0 00-1.023-2.496A3.476 3.476 0 007 0a3.571 3.571 0 00-2.447 1.059 3.635 3.635 0 00-1.049 2.469c-.003.4.067.798.206 1.173H1.17a1.17 1.17 0 00-.826.347A1.195 1.195 0 000 5.882v4.709c0 .311.122.61.34.83.218.22.514.343.822.343h2.342l-.008 2.354H2.34a1.17 1.17 0 00-.826.348 1.19 1.19 0 00-.344.834c0 .311.122.61.34.83.218.22.514.343.822.343h1.171v2.346h-1.17a1.17 1.17 0 00-1.014.59 1.191 1.191 0 000 1.182c.21.365.596.59 1.014.59h1.17v2.347h-1.17c-.308 0-.604.123-.822.343-.218.22-.34.518-.34.83 0 .313.125.612.344.834.22.221.516.346.826.347h1.155l.008 2.354H1.162c-.308 0-.604.123-.822.343-.218.22-.34.52-.34.83v4.71A1.178 1.178 0 001.171 35.3l2.564-.009a3.351 3.351 0 00-.231 1.182c0 1.26.666 2.424 1.748 3.055a3.47 3.47 0 003.496 0 3.533 3.533 0 001.747-3.055 3.28 3.28 0 00-.205-1.173h2.539c.31-.003.606-.13.824-.35a1.2 1.2 0 00.347-.832V29.41c0-.31-.122-.61-.34-.83a1.157 1.157 0 00-.823-.343h-2.341l.008-2.354h1.155c.416.001.802-.222 1.011-.585.21-.364.212-.812.005-1.177a1.165 1.165 0 00-1.008-.592h-1.171v-2.346h1.17c.31-.005.605-.13.825-.35.216-.223.34-.52.346-.832a1.192 1.192 0 00-.344-.834 1.169 1.169 0 00-.827-.347h-1.17v-2.346h1.17c.31-.005.605-.13.825-.35a1.18 1.18 0 00-.007-1.664 1.161 1.161 0 00-.826-.34h-1.154l-.008-2.355h2.341a1.16 1.16 0 00.816-.341zM7 37.653a1.162 1.162 0 01-.822-.346 1.181 1.181 0 01.002-1.662 1.16 1.16 0 011.647-.002c.219.22.342.518.344.83A1.23 1.23 0 017 37.653zM7.824 4.36A1.169 1.169 0 017 4.709a1.16 1.16 0 01-.822-.347A1.183 1.183 0 016.18 2.7a1.16 1.16 0 011.647-.002c.219.22.343.518.344.83a1.19 1.19 0 01-.347.832z"/></symbol><symbol viewBox="0 0 17 17" id="search" xmlns="http://www.w3.org/2000/svg"><path d="M6.314 0a6.314 6.314 0 016.315 6.314 6.33 6.33 0 01-1.516 4.11l.262.262h.768L17 15.543 15.543 17l-4.857-4.857v-.768l-.263-.262a6.33 6.33 0 01-4.109 1.516A6.315 6.315 0 016.314 0zm0 1.943a4.353 4.353 0 00-4.371 4.371 4.353 4.353 0 004.371 4.372 4.353 4.353 0 004.372-4.372 4.353 4.353 0 00-4.372-4.371z"/></symbol><symbol viewBox="0 0 26 72" id="shock-absorber" xmlns="http://www.w3.org/2000/svg"><path d="M25.357 20.561c.404-.4.635-.936.643-1.497v-8.476a2.112 2.112 0 00-.64-1.501 2.208 2.208 0 00-1.535-.626H19.11c.259-.674.389-1.39.383-2.111a6.27 6.27 0 00-1.9-4.493A6.56 6.56 0 0013 0a6.735 6.735 0 00-4.544 1.906A6.446 6.446 0 006.508 6.35a5.741 5.741 0 00.382 2.11H2.174a2.207 2.207 0 00-1.534.626 2.112 2.112 0 00-.64 1.5v8.477c0 .56.226 1.097.631 1.494.406.395.955.618 1.528.617h4.348l-.015 4.238H4.348a2.208 2.208 0 00-1.535.625 2.084 2.084 0 00-.008 2.995c.406.396.955.619 1.528.618h2.174v4.223H4.333c-.777 0-1.494.405-1.883 1.063a2.087 2.087 0 000 2.127 2.185 2.185 0 001.883 1.063h2.174v4.223H4.333c-.573 0-1.122.221-1.527.617a2.087 2.087 0 00-.632 1.494c.002.564.232 1.103.64 1.501.407.399.958.624 1.534.625h2.144l.015 4.238H2.16c-.573 0-1.123.222-1.528.618A2.087 2.087 0 000 52.937v8.476c.002.563.232 1.103.64 1.5a2.2 2.2 0 001.535.626l4.762-.015a5.872 5.872 0 00-.43 2.127c0 2.268 1.238 4.364 3.247 5.499a6.62 6.62 0 006.492 0c2.009-1.135 3.245-3.23 3.245-5.5a5.74 5.74 0 00-.382-2.11h4.716a2.222 2.222 0 001.532-.63c.406-.397.637-.935.643-1.497v-8.476a2.09 2.09 0 00-.632-1.494 2.184 2.184 0 00-1.527-.618h-4.349l.016-4.238h2.144a2.175 2.175 0 001.879-1.052 2.08 2.08 0 00.008-2.12 2.176 2.176 0 00-1.872-1.065h-2.175v-4.223h2.175a2.242 2.242 0 001.53-.63c.402-.4.631-.936.644-1.497a2.112 2.112 0 00-.64-1.501 2.205 2.205 0 00-1.535-.625h-2.174v-4.223h2.175a2.239 2.239 0 001.53-.63c.405-.398.63-.937.628-1.499a2.097 2.097 0 00-.64-1.495 2.192 2.192 0 00-1.534-.614h-2.144l-.015-4.238h4.348a2.195 2.195 0 001.517-.614zM13 67.777a2.193 2.193 0 01-1.526-.625 2.093 2.093 0 01-.63-1.496c0-.56.229-1.098.634-1.495a2.192 2.192 0 011.528-.62 2.19 2.19 0 011.53.617c.407.395.636.932.639 1.492a2.195 2.195 0 01-.663 1.479 2.291 2.291 0 01-1.512.648zm1.531-59.93a2.205 2.205 0 01-1.53.63 2.19 2.19 0 01-1.527-.625 2.095 2.095 0 01-.63-1.497c0-.56.228-1.098.634-1.494a2.19 2.19 0 011.528-.62 2.185 2.185 0 011.53.616c.407.395.636.932.639 1.492a2.108 2.108 0 01-.644 1.498z"/></symbol></svg>