<svg width="20" height="12" viewBox="0 0 20 12" fill="none" xmlns="http://www.w3.org/2000/svg">
<path d="M20 11.0816H0V12H20V11.0816Z" fill="#CB001C"/>
<path d="M20 10.1633H0V11.0816H20V10.1633Z" fill="white"/>
<path d="M20 9.2449H0V10.1633H20V9.2449Z" fill="#CB001C"/>
<path d="M20 8.32654H0V9.24491H20V8.32654Z" fill="white"/>
<path d="M20 7.34694H0V8.26531H20V7.34694Z" fill="#CB001C"/>
<path d="M20 6.42857H0V7.34694H20V6.42857Z" fill="white"/>
<path d="M20 5.51021H0V6.42858H20V5.51021Z" fill="#CB001C"/>
<path d="M20 4.59184H0V5.51021H20V4.59184Z" fill="white"/>
<path d="M20 3.67346H0V4.59183H20V3.67346Z" fill="#CB001C"/>
<path d="M20 2.7551H0V3.67346H20V2.7551Z" fill="white"/>
<path d="M20 1.83673H0V2.7551H20V1.83673Z" fill="#CB001C"/>
<path d="M20 0.918365H0V1.83673H20V0.918365Z" fill="white"/>
<path d="M20 0H0V0.918367H20V0Z" fill="#CB001C"/>
<path d="M9.10714 0H0V6.42857H9.10714V0Z" fill="#2A3560"/>
<path d="M0.833705 0.734695L0.893229 0.979593H1.13132L0.952753 1.10204L1.01228 1.34694L0.833705 1.22449L0.59561 1.34694L0.714658 1.10204L0.476562 0.979593H0.774182L0.833705 0.734695Z" fill="white"/>
<path d="M0.833705 1.77551L0.893229 2.02041H1.13132L0.952753 2.20408L1.01228 2.44898L0.833705 2.26531L0.59561 2.44898L0.714658 2.20408L0.476562 2.02041H0.774182L0.833705 1.77551Z" fill="white"/>
<path d="M0.833705 2.87755L0.893229 3.12245H1.13132L0.952753 3.2449L1.01228 3.48979L0.833705 3.36734L0.59561 3.48979L0.714658 3.2449L0.476562 3.12245H0.774182L0.833705 2.87755Z" fill="white"/>
<path d="M0.833705 3.91837L0.893229 4.16326H1.13132L0.952753 4.34694L1.01228 4.59184L0.833705 4.40816L0.59561 4.59184L0.714658 4.34694L0.476562 4.16326H0.774182L0.833705 3.91837Z" fill="white"/>
<path d="M0.833705 5.0204L0.893229 5.2653H1.13132L0.952753 5.38775L1.01228 5.63265L0.833705 5.5102L0.59561 5.63265L0.714658 5.38775L0.476562 5.2653H0.774182L0.833705 5.0204Z" fill="white"/>
<path d="M1.54762 1.28572L1.60714 1.53062H1.90476L1.66667 1.65307L1.72619 1.89797L1.54762 1.77552L1.36905 1.89797L1.42857 1.65307L1.25 1.53062H1.4881L1.54762 1.28572Z" fill="white"/>
<path d="M1.54762 2.32654L1.60714 2.57144H1.90476L1.66667 2.75511L1.72619 3.00001L1.54762 2.81633L1.36905 3.00001L1.42857 2.75511L1.25 2.57144H1.4881L1.54762 2.32654Z" fill="white"/>
<path d="M1.54762 3.42857L1.60714 3.67347H1.90476L1.66667 3.85715L1.72619 4.10204L1.54762 3.91837L1.36905 4.10204L1.42857 3.85715L1.25 3.67347H1.4881L1.54762 3.42857Z" fill="white"/>
<path d="M1.54762 4.53061L1.60714 4.77551H1.90476L1.66667 4.89796L1.72619 5.14285L1.54762 5.0204L1.36905 5.14285L1.42857 4.89796L1.25 4.77551H1.4881L1.54762 4.53061Z" fill="white"/>
<path d="M2.26246 0.734695L2.38151 0.979593H2.61961L2.44103 1.10204L2.50056 1.34694L2.26246 1.22449L2.08389 1.34694L2.14342 1.10204L1.96484 0.979593H2.20294L2.26246 0.734695Z" fill="white"/>
<path d="M2.26246 1.77551L2.38151 2.02041H2.61961L2.44103 2.20408L2.50056 2.44898L2.26246 2.26531L2.08389 2.44898L2.14342 2.20408L1.96484 2.02041H2.20294L2.26246 1.77551Z" fill="white"/>
<path d="M2.26246 2.87755L2.38151 3.12245H2.61961L2.44103 3.2449L2.50056 3.48979L2.26246 3.36734L2.08389 3.48979L2.14342 3.2449L1.96484 3.12245H2.20294L2.26246 2.87755Z" fill="white"/>
<path d="M2.26246 3.91837L2.38151 4.16326H2.61961L2.44103 4.34694L2.50056 4.59184L2.26246 4.40816L2.08389 4.59184L2.14342 4.34694L1.96484 4.16326H2.20294L2.26246 3.91837Z" fill="white"/>
<path d="M2.26246 5.0204L2.38151 5.2653H2.61961L2.44103 5.38775L2.50056 5.63265L2.26246 5.5102L2.08389 5.63265L2.14342 5.38775L1.96484 5.2653H2.20294L2.26246 5.0204Z" fill="white"/>
<path d="M3.03488 1.28572L3.0944 1.53062H3.3325L3.15392 1.65307L3.21345 1.89797L3.03488 1.77552L2.79678 1.89797L2.91583 1.65307L2.67773 1.53062H2.91583L3.03488 1.28572Z" fill="white"/>
<path d="M3.03488 2.32654L3.0944 2.57144H3.3325L3.15392 2.75511L3.21345 3.00001L3.03488 2.81633L2.79678 3.00001L2.91583 2.75511L2.67773 2.57144H2.91583L3.03488 2.32654Z" fill="white"/>
<path d="M3.03488 3.42857L3.0944 3.67347H3.3325L3.15392 3.85715L3.21345 4.10204L3.03488 3.91837L2.79678 4.10204L2.91583 3.85715L2.67773 3.67347H2.91583L3.03488 3.42857Z" fill="white"/>
<path d="M3.03488 4.53061L3.0944 4.77551H3.3325L3.15392 4.89796L3.21345 5.14285L3.03488 5.0204L2.79678 5.14285L2.91583 4.89796L2.67773 4.77551H2.91583L3.03488 4.53061Z" fill="white"/>
<path d="M3.75074 0.734695L3.81027 0.979593H4.10789L3.86979 1.10204L3.98884 1.34694L3.75074 1.22449L3.57217 1.34694L3.6317 1.10204L3.45312 0.979593H3.69122L3.75074 0.734695Z" fill="white"/>
<path d="M3.75074 1.77551L3.81027 2.02041H4.10789L3.86979 2.20408L3.98884 2.44898L3.75074 2.26531L3.57217 2.44898L3.6317 2.20408L3.45312 2.02041H3.69122L3.75074 1.77551Z" fill="white"/>
<path d="M3.75074 2.87755L3.81027 3.12245H4.10789L3.86979 3.2449L3.98884 3.48979L3.75074 3.36734L3.57217 3.48979L3.6317 3.2449L3.45312 3.12245H3.69122L3.75074 2.87755Z" fill="white"/>
<path d="M3.75074 3.91837L3.81027 4.16326H4.10789L3.86979 4.34694L3.98884 4.59184L3.75074 4.40816L3.57217 4.59184L3.6317 4.34694L3.45312 4.16326H3.69122L3.75074 3.91837Z" fill="white"/>
<path d="M3.75074 5.0204L3.81027 5.2653H4.10789L3.86979 5.38775L3.98884 5.63265L3.75074 5.5102L3.57217 5.63265L3.6317 5.38775L3.45312 5.2653H3.69122L3.75074 5.0204Z" fill="white"/>
<path d="M4.46363 1.28572L4.58268 1.53062H4.82078L4.64221 1.65307L4.70173 1.89797L4.46363 1.77552L4.28506 1.89797L4.34459 1.65307L4.16602 1.53062H4.40411L4.46363 1.28572Z" fill="white"/>
<path d="M4.46363 2.32654L4.58268 2.57144H4.82078L4.64221 2.75511L4.70173 3.00001L4.46363 2.81633L4.28506 3.00001L4.34459 2.75511L4.16602 2.57144H4.40411L4.46363 2.32654Z" fill="white"/>
<path d="M4.46363 3.42857L4.58268 3.67347H4.82078L4.64221 3.85715L4.70173 4.10204L4.46363 3.91837L4.28506 4.10204L4.34459 3.85715L4.16602 3.67347H4.40411L4.46363 3.42857Z" fill="white"/>
<path d="M4.46363 4.53061L4.58268 4.77551H4.82078L4.64221 4.89796L4.70173 5.14285L4.46363 5.0204L4.28506 5.14285L4.34459 4.89796L4.16602 4.77551H4.40411L4.46363 4.53061Z" fill="white"/>
<path d="M5.238 0.734695L5.29753 0.979593H5.53562L5.35705 1.10204L5.41657 1.34694L5.238 1.22449L4.99991 1.34694L5.11896 1.10204L4.88086 0.979593H5.17848L5.238 0.734695Z" fill="white"/>
<path d="M5.238 1.77551L5.29753 2.02041H5.53562L5.35705 2.20408L5.41657 2.44898L5.238 2.26531L4.99991 2.44898L5.11896 2.20408L4.88086 2.02041H5.17848L5.238 1.77551Z" fill="white"/>
<path d="M5.238 2.87755L5.29753 3.12245H5.53562L5.35705 3.2449L5.41657 3.48979L5.238 3.36734L4.99991 3.48979L5.11896 3.2449L4.88086 3.12245H5.17848L5.238 2.87755Z" fill="white"/>
<path d="M5.238 3.91837L5.29753 4.16326H5.53562L5.35705 4.34694L5.41657 4.59184L5.238 4.40816L4.99991 4.59184L5.11896 4.34694L4.88086 4.16326H5.17848L5.238 3.91837Z" fill="white"/>
<path d="M5.238 5.0204L5.29753 5.2653H5.53562L5.35705 5.38775L5.41657 5.63265L5.238 5.5102L4.99991 5.63265L5.11896 5.38775L4.88086 5.2653H5.17848L5.238 5.0204Z" fill="white"/>
<path d="M5.95192 1.28572L6.01144 1.53062H6.30906L6.07096 1.65307L6.13049 1.89797L5.95192 1.77552L5.77334 1.89797L5.83287 1.65307L5.6543 1.53062H5.89239L5.95192 1.28572Z" fill="white"/>
<path d="M5.95192 2.32654L6.01144 2.57144H6.30906L6.07096 2.75511L6.13049 3.00001L5.95192 2.81633L5.77334 3.00001L5.83287 2.75511L5.6543 2.57144H5.89239L5.95192 2.32654Z" fill="white"/>
<path d="M5.95192 3.42857L6.01144 3.67347H6.30906L6.07096 3.85715L6.13049 4.10204L5.95192 3.91837L5.77334 4.10204L5.83287 3.85715L5.6543 3.67347H5.89239L5.95192 3.42857Z" fill="white"/>
<path d="M5.95192 4.53061L6.01144 4.77551H6.30906L6.07096 4.89796L6.13049 5.14285L5.95192 5.0204L5.77334 5.14285L5.83287 4.89796L5.6543 4.77551H5.89239L5.95192 4.53061Z" fill="white"/>
<path d="M6.72628 0.734695L6.78581 0.979593H7.0239L6.84533 1.10204L6.90485 1.34694L6.72628 1.22449L6.48819 1.34694L6.54771 1.10204L6.36914 0.979593H6.60724L6.72628 0.734695Z" fill="white"/>
<path d="M6.72628 1.77551L6.78581 2.02041H7.0239L6.84533 2.20408L6.90485 2.44898L6.72628 2.26531L6.48819 2.44898L6.54771 2.20408L6.36914 2.02041H6.60724L6.72628 1.77551Z" fill="white"/>
<path d="M6.72628 2.87755L6.78581 3.12245H7.0239L6.84533 3.2449L6.90485 3.48979L6.72628 3.36734L6.48819 3.48979L6.54771 3.2449L6.36914 3.12245H6.60724L6.72628 2.87755Z" fill="white"/>
<path d="M6.72628 3.91837L6.78581 4.16326H7.0239L6.84533 4.34694L6.90485 4.59184L6.72628 4.40816L6.48819 4.59184L6.54771 4.34694L6.36914 4.16326H6.60724L6.72628 3.91837Z" fill="white"/>
<path d="M6.72628 5.0204L6.78581 5.2653H7.0239L6.84533 5.38775L6.90485 5.63265L6.72628 5.5102L6.48819 5.63265L6.54771 5.38775L6.36914 5.2653H6.60724L6.72628 5.0204Z" fill="white"/>
<path d="M7.44113 1.28572L7.50065 1.53062H7.73875L7.56017 1.65307L7.6197 1.89797L7.44113 1.77552L7.20303 1.89797L7.32208 1.65307L7.08398 1.53062H7.32208L7.44113 1.28572Z" fill="white"/>
<path d="M7.44113 2.32654L7.50065 2.57144H7.73875L7.56017 2.75511L7.6197 3.00001L7.44113 2.81633L7.20303 3.00001L7.32208 2.75511L7.08398 2.57144H7.32208L7.44113 2.32654Z" fill="white"/>
<path d="M7.44113 3.42857L7.50065 3.67347H7.73875L7.56017 3.85715L7.6197 4.10204L7.44113 3.91837L7.20303 4.10204L7.32208 3.85715L7.08398 3.67347H7.32208L7.44113 3.42857Z" fill="white"/>
<path d="M7.44113 4.53061L7.50065 4.77551H7.73875L7.56017 4.89796L7.6197 5.14285L7.44113 5.0204L7.20303 5.14285L7.32208 4.89796L7.08398 4.77551H7.32208L7.44113 4.53061Z" fill="white"/>
<path d="M8.15504 0.734695L8.21456 0.979593H8.51218L8.27409 1.10204L8.39314 1.34694L8.15504 1.22449L7.97647 1.34694L8.03599 1.10204L7.85742 0.979593H8.09552L8.15504 0.734695Z" fill="white"/>
<path d="M8.15504 1.77551L8.21456 2.02041H8.51218L8.27409 2.20408L8.39314 2.44898L8.15504 2.26531L7.97647 2.44898L8.03599 2.20408L7.85742 2.02041H8.09552L8.15504 1.77551Z" fill="white"/>
<path d="M8.15504 2.87755L8.21456 3.12245H8.51218L8.27409 3.2449L8.39314 3.48979L8.15504 3.36734L7.97647 3.48979L8.03599 3.2449L7.85742 3.12245H8.09552L8.15504 2.87755Z" fill="white"/>
<path d="M8.15504 3.91837L8.21456 4.16326H8.51218L8.27409 4.34694L8.39314 4.59184L8.15504 4.40816L7.97647 4.59184L8.03599 4.34694L7.85742 4.16326H8.09552L8.15504 3.91837Z" fill="white"/>
<path d="M8.15504 5.0204L8.21456 5.2653H8.51218L8.27409 5.38775L8.39314 5.63265L8.15504 5.5102L7.97647 5.63265L8.03599 5.38775L7.85742 5.2653H8.09552L8.15504 5.0204Z" fill="white"/>
</svg>
